<svg width="54" height="59" viewBox="0 0 54 59" fill="none" xmlns="http://www.w3.org/2000/svg">
<path d="M15 0.5C12.3346 0.5 9.77832 1.55884 7.89358 3.44358C6.00884 5.32832 4.95 7.88457 4.95 10.55C4.95 13.2154 6.00884 15.7717 7.89358 17.6564C9.77832 19.5412 12.3346 20.6 15 20.6H19.59C20.76 20.6 21.87 20.9 22.83 21.5H28.89C27.15 18.35 23.58 16.25 19.59 16.25H15C12 16.25 9.45 13.31 9.45 10.25C9.45 7.19 12 5 15 5V0.5ZM29.55 2C29.55 5 27 7.55 24 7.55V12.05C29.76 12.05 34.5 16.1 35.67 21.5H40.26C39.8369 18.8493 38.7781 16.3404 37.1742 14.188C35.5703 12.0355 33.469 10.3035 31.05 9.14C32.91 7.31 34.05 4.79 34.05 2H29.55ZM0 26V32H6V53C6 54.5913 6.63214 56.1174 7.75736 57.2426C8.88258 58.3679 10.4087 59 12 59H42C45.33 59 48 56.33 48 53V32H54V26H0ZM12 32H42V53H12V32Z" fill="white"/>
</svg>
